<svg xmlns="http://www.w3.org/2000/svg" width="840" height="400">
<rect width="840" height="400" fill="#0f172a"/>
<text x="420" y="28" text-anchor="middle" font-size="17" font-weight="bold" fill="#f1f5f9" font-family="sans-serif">Sucesso por Algoritmo</text>
<text x="420" y="50" text-anchor="middle" font-size="12" fill="#94a3b8" font-family="sans-serif">quantidade de modelos que passaram (de 3)</text>
<line x1="50" y1="270" x2="820" y2="270" stroke="#475569" stroke-width="1" opacity="0.3" stroke-dasharray="4,4"/>
<text x="44" y="274" text-anchor="end" font-size="11" fill="#94a3b8" font-family="sans-serif">0</text>
<line x1="50" y1="203.33333333333334" x2="820" y2="203.33333333333334" stroke="#475569" stroke-width="1" opacity="0.3" stroke-dasharray="4,4"/>
<text x="44" y="207.33333333333334" text-anchor="end" font-size="11" fill="#94a3b8" font-family="sans-serif">1</text>
<line x1="50" y1="136.66666666666669" x2="820" y2="136.66666666666669" stroke="#475569" stroke-width="1" opacity="0.3" stroke-dasharray="4,4"/>
<text x="44" y="140.66666666666669" text-anchor="end" font-size="11" fill="#94a3b8" font-family="sans-serif">2</text>
<line x1="50" y1="70" x2="820" y2="70" stroke="#475569" stroke-width="1" opacity="0.3" stroke-dasharray="4,4"/>
<text x="44" y="74" text-anchor="end" font-size="11" fill="#94a3b8" font-family="sans-serif">3</text>
<rect x="50" y="70" width="30" height="200" rx="3" fill="#334155" opacity="0.2"/>
<rect x="50" y="136.66666666666669" width="30" height="133.33333333333331" rx="3" fill="#f97316" opacity="0.88"/>
<text x="65" y="208.33333333333334" text-anchor="middle" font-size="11" font-weight="bold" fill="white" font-family="sans-serif">2</text>
<text transform="rotate(-55 65 282)" x="65" y="282" text-anchor="end" font-size="10" fill="#94a3b8" font-family="monospace,sans-serif">factorial</text>
<rect x="88" y="70" width="30" height="200" rx="3" fill="#334155" opacity="0.2"/>
<rect x="88" y="136.66666666666669" width="30" height="133.33333333333331" rx="3" fill="#f97316" opacity="0.88"/>
<text x="103" y="208.33333333333334" text-anchor="middle" font-size="11" font-weight="bold" fill="white" font-family="sans-serif">2</text>
<text transform="rotate(-55 103 282)" x="103" y="282" text-anchor="end" font-size="10" fill="#94a3b8" font-family="monospace,sans-serif">fibonacci</text>
<rect x="126" y="70" width="30" height="200" rx="3" fill="#334155" opacity="0.2"/>
<rect x="126" y="203.33333333333334" width="30" height="66.66666666666666" rx="3" fill="#f97316" opacity="0.88"/>
<text x="141" y="241.66666666666669" text-anchor="middle" font-size="11" font-weight="bold" fill="white" font-family="sans-serif">1</text>
<text transform="rotate(-55 141 282)" x="141" y="282" text-anchor="end" font-size="10" fill="#94a3b8" font-family="monospace,sans-serif">reverse_string</text>
<rect x="164" y="70" width="30" height="200" rx="3" fill="#334155" opacity="0.2"/>
<rect x="164" y="70" width="30" height="200" rx="3" fill="#22c55e" opacity="0.88"/>
<text x="179" y="175" text-anchor="middle" font-size="11" font-weight="bold" fill="white" font-family="sans-serif">3</text>
<text transform="rotate(-55 179 282)" x="179" y="282" text-anchor="end" font-size="10" fill="#94a3b8" font-family="monospace,sans-serif">max_sublist_sum</text>
<rect x="202" y="70" width="30" height="200" rx="3" fill="#334155" opacity="0.2"/>
<rect x="202" y="136.66666666666669" width="30" height="133.33333333333331" rx="3" fill="#f97316" opacity="0.88"/>
<text x="217" y="208.33333333333334" text-anchor="middle" font-size="11" font-weight="bold" fill="white" font-family="sans-serif">2</text>
<text transform="rotate(-55 217 282)" x="217" y="282" text-anchor="end" font-size="10" fill="#94a3b8" font-family="monospace,sans-serif">flatten</text>
<rect x="240" y="70" width="30" height="200" rx="3" fill="#334155" opacity="0.2"/>
<rect x="240" y="203.33333333333334" width="30" height="66.66666666666666" rx="3" fill="#f97316" opacity="0.88"/>
<text x="255" y="241.66666666666669" text-anchor="middle" font-size="11" font-weight="bold" fill="white" font-family="sans-serif">1</text>
<text transform="rotate(-55 255 282)" x="255" y="282" text-anchor="end" font-size="10" fill="#94a3b8" font-family="monospace,sans-serif">is_palindrome</text>
<rect x="278" y="70" width="30" height="200" rx="3" fill="#334155" opacity="0.2"/>
<rect x="278" y="203.33333333333334" width="30" height="66.66666666666666" rx="3" fill="#f97316" opacity="0.88"/>
<text x="293" y="241.66666666666669" text-anchor="middle" font-size="11" font-weight="bold" fill="white" font-family="sans-serif">1</text>
<text transform="rotate(-55 293 282)" x="293" y="282" text-anchor="end" font-size="10" fill="#94a3b8" font-family="monospace,sans-serif">gcd</text>
<rect x="316" y="70" width="30" height="200" rx="3" fill="#334155" opacity="0.2"/>
<rect x="316" y="203.33333333333334" width="30" height="66.66666666666666" rx="3" fill="#f97316" opacity="0.88"/>
<text x="331" y="241.66666666666669" text-anchor="middle" font-size="11" font-weight="bold" fill="white" font-family="sans-serif">1</text>
<text transform="rotate(-55 331 282)" x="331" y="282" text-anchor="end" font-size="10" fill="#94a3b8" font-family="monospace,sans-serif">binary_search</text>
<rect x="354" y="70" width="30" height="200" rx="3" fill="#334155" opacity="0.2"/>
<rect x="354" y="136.66666666666669" width="30" height="133.33333333333331" rx="3" fill="#f97316" opacity="0.88"/>
<text x="369" y="208.33333333333334" text-anchor="middle" font-size="11" font-weight="bold" fill="white" font-family="sans-serif">2</text>
<text transform="rotate(-55 369 282)" x="369" y="282" text-anchor="end" font-size="10" fill="#94a3b8" font-family="monospace,sans-serif">bubblesort</text>
<rect x="392" y="70" width="30" height="200" rx="3" fill="#334155" opacity="0.2"/>
<rect x="392" y="203.33333333333334" width="30" height="66.66666666666666" rx="3" fill="#f97316" opacity="0.88"/>
<text x="407" y="241.66666666666669" text-anchor="middle" font-size="11" font-weight="bold" fill="white" font-family="sans-serif">1</text>
<text transform="rotate(-55 407 282)" x="407" y="282" text-anchor="end" font-size="10" fill="#94a3b8" font-family="monospace,sans-serif">find_in_sorted</text>
<rect x="430" y="70" width="30" height="200" rx="3" fill="#334155" opacity="0.2"/>
<rect x="430" y="136.66666666666669" width="30" height="133.33333333333331" rx="3" fill="#f97316" opacity="0.88"/>
<text x="445" y="208.33333333333334" text-anchor="middle" font-size="11" font-weight="bold" fill="white" font-family="sans-serif">2</text>
<text transform="rotate(-55 445 282)" x="445" y="282" text-anchor="end" font-size="10" fill="#94a3b8" font-family="monospace,sans-serif">shortest_path_lengths</text>
<rect x="468" y="70" width="30" height="200" rx="3" fill="#334155" opacity="0.2"/>
<rect x="468" y="203.33333333333334" width="30" height="66.66666666666666" rx="3" fill="#f97316" opacity="0.88"/>
<text x="483" y="241.66666666666669" text-anchor="middle" font-size="11" font-weight="bold" fill="white" font-family="sans-serif">1</text>
<text transform="rotate(-55 483 282)" x="483" y="282" text-anchor="end" font-size="10" fill="#94a3b8" font-family="monospace,sans-serif">pascal</text>
<rect x="506" y="70" width="30" height="200" rx="3" fill="#334155" opacity="0.2"/>
<text x="521" y="264" text-anchor="middle" font-size="11" font-weight="bold" fill="#ef4444" font-family="sans-serif">0</text>
<text transform="rotate(-55 521 282)" x="521" y="282" text-anchor="end" font-size="10" fill="#94a3b8" font-family="monospace,sans-serif">next_permutation</text>
<rect x="544" y="70" width="30" height="200" rx="3" fill="#334155" opacity="0.2"/>
<rect x="544" y="70" width="30" height="200" rx="3" fill="#22c55e" opacity="0.88"/>
<text x="559" y="175" text-anchor="middle" font-size="11" font-weight="bold" fill="white" font-family="sans-serif">3</text>
<text transform="rotate(-55 559 282)" x="559" y="282" text-anchor="end" font-size="10" fill="#94a3b8" font-family="monospace,sans-serif">levenshtein</text>
<rect x="582" y="70" width="30" height="200" rx="3" fill="#334155" opacity="0.2"/>
<text x="597" y="264" text-anchor="middle" font-size="11" font-weight="bold" fill="#ef4444" font-family="sans-serif">0</text>
<text transform="rotate(-55 597 282)" x="597" y="282" text-anchor="end" font-size="10" fill="#94a3b8" font-family="monospace,sans-serif">lis</text>
<rect x="620" y="70" width="30" height="200" rx="3" fill="#334155" opacity="0.2"/>
<rect x="620" y="203.33333333333334" width="30" height="66.66666666666666" rx="3" fill="#f97316" opacity="0.88"/>
<text x="635" y="241.66666666666669" text-anchor="middle" font-size="11" font-weight="bold" fill="white" font-family="sans-serif">1</text>
<text transform="rotate(-55 635 282)" x="635" y="282" text-anchor="end" font-size="10" fill="#94a3b8" font-family="monospace,sans-serif">quicksort</text>
<rect x="658" y="70" width="30" height="200" rx="3" fill="#334155" opacity="0.2"/>
<rect x="658" y="136.66666666666669" width="30" height="133.33333333333331" rx="3" fill="#f97316" opacity="0.88"/>
<text x="673" y="208.33333333333334" text-anchor="middle" font-size="11" font-weight="bold" fill="white" font-family="sans-serif">2</text>
<text transform="rotate(-55 673 282)" x="673" y="282" text-anchor="end" font-size="10" fill="#94a3b8" font-family="monospace,sans-serif">mergesort</text>
<rect x="696" y="70" width="30" height="200" rx="3" fill="#334155" opacity="0.2"/>
<rect x="696" y="203.33333333333334" width="30" height="66.66666666666666" rx="3" fill="#f97316" opacity="0.88"/>
<text x="711" y="241.66666666666669" text-anchor="middle" font-size="11" font-weight="bold" fill="white" font-family="sans-serif">1</text>
<text transform="rotate(-55 711 282)" x="711" y="282" text-anchor="end" font-size="10" fill="#94a3b8" font-family="monospace,sans-serif">knapsack</text>
<rect x="734" y="70" width="30" height="200" rx="3" fill="#334155" opacity="0.2"/>
<rect x="734" y="203.33333333333334" width="30" height="66.66666666666666" rx="3" fill="#f97316" opacity="0.88"/>
<text x="749" y="241.66666666666669" text-anchor="middle" font-size="11" font-weight="bold" fill="white" font-family="sans-serif">1</text>
<text transform="rotate(-55 749 282)" x="749" y="282" text-anchor="end" font-size="10" fill="#94a3b8" font-family="monospace,sans-serif">shortest_path_step</text>
<rect x="772" y="70" width="30" height="200" rx="3" fill="#334155" opacity="0.2"/>
<rect x="772" y="70" width="30" height="200" rx="3" fill="#22c55e" opacity="0.88"/>
<text x="787" y="175" text-anchor="middle" font-size="11" font-weight="bold" fill="white" font-family="sans-serif">3</text>
<text transform="rotate(-55 787 282)" x="787" y="282" text-anchor="end" font-size="10" fill="#94a3b8" font-family="monospace,sans-serif">topological_sort</text>
<rect x="50" y="375" width="16" height="11" rx="2" fill="#22c55e" opacity="0.9"/>
<text x="72" y="386" font-size="11" fill="#94a3b8" font-family="sans-serif">Todos passaram</text>
<rect x="240" y="375" width="16" height="11" rx="2" fill="#f97316" opacity="0.9"/>
<text x="262" y="386" font-size="11" fill="#94a3b8" font-family="sans-serif">Parcial</text>
<rect x="430" y="375" width="16" height="11" rx="2" fill="#ef4444" opacity="0.9"/>
<text x="452" y="386" font-size="11" fill="#94a3b8" font-family="sans-serif">Nenhum passou</text>
</svg>