<svg xmlns="http://www.w3.org/2000/svg" width="960" height="510" viewBox="0 0 960 510" role="img">
<style>text{font-family:Arial,sans-serif;fill:#172033} .title{font-size:22px;font-weight:700}.label{font-size:13px}.value{font-size:12px;font-weight:700}.grid{stroke:#d7dee8;stroke-width:1}</style>
<rect width="100%" height="100%" fill="#ffffff"/><text x="28" y="38" class="title">Cobertura média das funções-alvo</text><line x1="165" y1="70" x2="165" y2="440" class="grid"/><text x="165" y="462" class="label" text-anchor="middle">0%</text><line x1="303" y1="70" x2="303" y2="440" class="grid"/><text x="303" y="462" class="label" text-anchor="middle">20%</text><line x1="441" y1="70" x2="441" y2="440" class="grid"/><text x="441" y="462" class="label" text-anchor="middle">40%</text><line x1="579" y1="70" x2="579" y2="440" class="grid"/><text x="579" y="462" class="label" text-anchor="middle">60%</text><line x1="717" y1="70" x2="717" y2="440" class="grid"/><text x="717" y="462" class="label" text-anchor="middle">80%</text><line x1="855" y1="70" x2="855" y2="440" class="grid"/><text x="855" y="462" class="label" text-anchor="middle">100%</text><text x="150" y="118" class="label" text-anchor="end">GPT-4o</text><rect x="165" y="80" width="690" height="17" rx="2" fill="#2563eb"/><text x="861" y="93" class="value">100.00</text><rect x="165" y="100" width="690" height="17" rx="2" fill="#d97706"/><text x="861" y="113" class="value">100.00</text><rect x="165" y="120" width="690" height="17" rx="2" fill="#7c3aed"/><text x="861" y="133" class="value">100.00</text><rect x="165" y="140" width="690" height="17" rx="2" fill="#0891b2"/><text x="861" y="153" class="value">100.00</text><text x="150" y="225" class="label" text-anchor="end">Gemini 1.5 Pro</text><rect x="165" y="187" width="690" height="17" rx="2" fill="#2563eb"/><text x="861" y="200" class="value">100.00</text><rect x="165" y="207" width="690" height="17" rx="2" fill="#d97706"/><text x="861" y="220" class="value">100.00</text><rect x="165" y="227" width="690" height="17" rx="2" fill="#7c3aed"/><text x="861" y="240" class="value">100.00</text><rect x="165" y="247" width="690" height="17" rx="2" fill="#0891b2"/><text x="861" y="260" class="value">100.00</text><text x="150" y="332" class="label" text-anchor="end">Claude 3.5 Sonnet</text><rect x="165" y="294" width="690" height="17" rx="2" fill="#2563eb"/><text x="861" y="307" class="value">100.00</text><rect x="165" y="314" width="690" height="17" rx="2" fill="#d97706"/><text x="861" y="327" class="value">100.00</text><rect x="165" y="334" width="690" height="17" rx="2" fill="#7c3aed"/><text x="861" y="347" class="value">100.00</text><rect x="165" y="354" width="690" height="17" rx="2" fill="#0891b2"/><text x="861" y="367" class="value">100.00</text><rect x="190" y="485" width="14" height="14" fill="#2563eb"/><text x="210" y="497" class="label">Statements</text><rect x="355" y="485" width="14" height="14" fill="#d97706"/><text x="375" y="497" class="label">Branches</text><rect x="520" y="485" width="14" height="14" fill="#7c3aed"/><text x="540" y="497" class="label">Functions</text><rect x="685" y="485" width="14" height="14" fill="#0891b2"/><text x="705" y="497" class="label">Lines</text></svg>