<svg xmlns="http://www.w3.org/2000/svg" width="650" height="780">
<rect width="650" height="780" fill="#0f172a"/>
<text x="325" y="34" text-anchor="middle" font-size="17" font-weight="bold" fill="#f1f5f9" font-family="sans-serif">Resultados por Algoritmo × Modelo</text>
<text x="280" y="70" text-anchor="middle" font-size="14" font-weight="bold" fill="#60a5fa" font-family="sans-serif">GPT-4o</text>
<line x1="210" y1="90" x2="210" y2="730" stroke="#475569" stroke-width="1" opacity="0.4"/>
<text x="420" y="70" text-anchor="middle" font-size="14" font-weight="bold" fill="#c084fc" font-family="sans-serif">Gemini</text>
<line x1="350" y1="90" x2="350" y2="730" stroke="#475569" stroke-width="1" opacity="0.4"/>
<text x="560" y="70" text-anchor="middle" font-size="14" font-weight="bold" fill="#fbbf24" font-family="sans-serif">Claude</text>
<line x1="490" y1="90" x2="490" y2="730" stroke="#475569" stroke-width="1" opacity="0.4"/>
<line x1="630" y1="90" x2="630" y2="730" stroke="#475569" stroke-width="1" opacity="0.4"/>
<rect x="210" y="90" width="420" height="32" fill="#ffffff08"/>
<text x="200" y="111" text-anchor="end" font-size="11" fill="#94a3b8" font-family="monospace,sans-serif">factorial</text>
<rect x="215" y="94" width="130" height="24" rx="5" fill="#22c55e" opacity="0.85"/>
<text x="280" y="110" text-anchor="middle" font-size="10" font-weight="bold" fill="white" font-family="sans-serif">OK</text>
<rect x="355" y="94" width="130" height="24" rx="5" fill="#22c55e" opacity="0.85"/>
<text x="420" y="110" text-anchor="middle" font-size="10" font-weight="bold" fill="white" font-family="sans-serif">OK</text>
<rect x="495" y="94" width="130" height="24" rx="5" fill="#ef4444" opacity="0.85"/>
<text x="560" y="110" text-anchor="middle" font-size="10" font-weight="bold" fill="white" font-family="sans-serif">FAIL</text>
<line x1="210" y1="122" x2="630" y2="122" stroke="#475569" stroke-width="1" opacity="0.15"/>
<rect x="210" y="122" width="420" height="32" fill="#00000000"/>
<text x="200" y="143" text-anchor="end" font-size="11" fill="#94a3b8" font-family="monospace,sans-serif">fibonacci</text>
<rect x="215" y="126" width="130" height="24" rx="5" fill="#22c55e" opacity="0.85"/>
<text x="280" y="142" text-anchor="middle" font-size="10" font-weight="bold" fill="white" font-family="sans-serif">OK</text>
<rect x="355" y="126" width="130" height="24" rx="5" fill="#22c55e" opacity="0.85"/>
<text x="420" y="142" text-anchor="middle" font-size="10" font-weight="bold" fill="white" font-family="sans-serif">OK</text>
<rect x="495" y="126" width="130" height="24" rx="5" fill="#f97316" opacity="0.85"/>
<text x="560" y="142" text-anchor="middle" font-size="10" font-weight="bold" fill="white" font-family="sans-serif">TIMEOUT</text>
<line x1="210" y1="154" x2="630" y2="154" stroke="#475569" stroke-width="1" opacity="0.15"/>
<rect x="210" y="154" width="420" height="32" fill="#ffffff08"/>
<text x="200" y="175" text-anchor="end" font-size="11" fill="#94a3b8" font-family="monospace,sans-serif">reverse_string</text>
<rect x="215" y="158" width="130" height="24" rx="5" fill="#ef4444" opacity="0.85"/>
<text x="280" y="174" text-anchor="middle" font-size="10" font-weight="bold" fill="white" font-family="sans-serif">FAIL</text>
<rect x="355" y="158" width="130" height="24" rx="5" fill="#ef4444" opacity="0.85"/>
<text x="420" y="174" text-anchor="middle" font-size="10" font-weight="bold" fill="white" font-family="sans-serif">FAIL</text>
<rect x="495" y="158" width="130" height="24" rx="5" fill="#22c55e" opacity="0.85"/>
<text x="560" y="174" text-anchor="middle" font-size="10" font-weight="bold" fill="white" font-family="sans-serif">OK</text>
<line x1="210" y1="186" x2="630" y2="186" stroke="#475569" stroke-width="1" opacity="0.15"/>
<rect x="210" y="186" width="420" height="32" fill="#00000000"/>
<text x="200" y="207" text-anchor="end" font-size="11" fill="#94a3b8" font-family="monospace,sans-serif">max_sublist_sum</text>
<rect x="215" y="190" width="130" height="24" rx="5" fill="#22c55e" opacity="0.85"/>
<text x="280" y="206" text-anchor="middle" font-size="10" font-weight="bold" fill="white" font-family="sans-serif">OK</text>
<rect x="355" y="190" width="130" height="24" rx="5" fill="#22c55e" opacity="0.85"/>
<text x="420" y="206" text-anchor="middle" font-size="10" font-weight="bold" fill="white" font-family="sans-serif">OK</text>
<rect x="495" y="190" width="130" height="24" rx="5" fill="#22c55e" opacity="0.85"/>
<text x="560" y="206" text-anchor="middle" font-size="10" font-weight="bold" fill="white" font-family="sans-serif">OK</text>
<line x1="210" y1="218" x2="630" y2="218" stroke="#475569" stroke-width="1" opacity="0.15"/>
<rect x="210" y="218" width="420" height="32" fill="#ffffff08"/>
<text x="200" y="239" text-anchor="end" font-size="11" fill="#94a3b8" font-family="monospace,sans-serif">flatten</text>
<rect x="215" y="222" width="130" height="24" rx="5" fill="#22c55e" opacity="0.85"/>
<text x="280" y="238" text-anchor="middle" font-size="10" font-weight="bold" fill="white" font-family="sans-serif">OK</text>
<rect x="355" y="222" width="130" height="24" rx="5" fill="#22c55e" opacity="0.85"/>
<text x="420" y="238" text-anchor="middle" font-size="10" font-weight="bold" fill="white" font-family="sans-serif">OK</text>
<rect x="495" y="222" width="130" height="24" rx="5" fill="#ef4444" opacity="0.85"/>
<text x="560" y="238" text-anchor="middle" font-size="10" font-weight="bold" fill="white" font-family="sans-serif">FAIL</text>
<line x1="210" y1="250" x2="630" y2="250" stroke="#475569" stroke-width="1" opacity="0.15"/>
<rect x="210" y="250" width="420" height="32" fill="#00000000"/>
<text x="200" y="271" text-anchor="end" font-size="11" fill="#94a3b8" font-family="monospace,sans-serif">is_palindrome</text>
<rect x="215" y="254" width="130" height="24" rx="5" fill="#ef4444" opacity="0.85"/>
<text x="280" y="270" text-anchor="middle" font-size="10" font-weight="bold" fill="white" font-family="sans-serif">FAIL</text>
<rect x="355" y="254" width="130" height="24" rx="5" fill="#22c55e" opacity="0.85"/>
<text x="420" y="270" text-anchor="middle" font-size="10" font-weight="bold" fill="white" font-family="sans-serif">OK</text>
<rect x="495" y="254" width="130" height="24" rx="5" fill="#ef4444" opacity="0.85"/>
<text x="560" y="270" text-anchor="middle" font-size="10" font-weight="bold" fill="white" font-family="sans-serif">FAIL</text>
<line x1="210" y1="282" x2="630" y2="282" stroke="#475569" stroke-width="1" opacity="0.15"/>
<rect x="210" y="282" width="420" height="32" fill="#ffffff08"/>
<text x="200" y="303" text-anchor="end" font-size="11" fill="#94a3b8" font-family="monospace,sans-serif">gcd</text>
<rect x="215" y="286" width="130" height="24" rx="5" fill="#ef4444" opacity="0.85"/>
<text x="280" y="302" text-anchor="middle" font-size="10" font-weight="bold" fill="white" font-family="sans-serif">FAIL</text>
<rect x="355" y="286" width="130" height="24" rx="5" fill="#22c55e" opacity="0.85"/>
<text x="420" y="302" text-anchor="middle" font-size="10" font-weight="bold" fill="white" font-family="sans-serif">OK</text>
<rect x="495" y="286" width="130" height="24" rx="5" fill="#ef4444" opacity="0.85"/>
<text x="560" y="302" text-anchor="middle" font-size="10" font-weight="bold" fill="white" font-family="sans-serif">FAIL</text>
<line x1="210" y1="314" x2="630" y2="314" stroke="#475569" stroke-width="1" opacity="0.15"/>
<rect x="210" y="314" width="420" height="32" fill="#00000000"/>
<text x="200" y="335" text-anchor="end" font-size="11" fill="#94a3b8" font-family="monospace,sans-serif">binary_search</text>
<rect x="215" y="318" width="130" height="24" rx="5" fill="#ef4444" opacity="0.85"/>
<text x="280" y="334" text-anchor="middle" font-size="10" font-weight="bold" fill="white" font-family="sans-serif">FAIL</text>
<rect x="355" y="318" width="130" height="24" rx="5" fill="#22c55e" opacity="0.85"/>
<text x="420" y="334" text-anchor="middle" font-size="10" font-weight="bold" fill="white" font-family="sans-serif">OK</text>
<rect x="495" y="318" width="130" height="24" rx="5" fill="#ef4444" opacity="0.85"/>
<text x="560" y="334" text-anchor="middle" font-size="10" font-weight="bold" fill="white" font-family="sans-serif">FAIL</text>
<line x1="210" y1="346" x2="630" y2="346" stroke="#475569" stroke-width="1" opacity="0.15"/>
<rect x="210" y="346" width="420" height="32" fill="#ffffff08"/>
<text x="200" y="367" text-anchor="end" font-size="11" fill="#94a3b8" font-family="monospace,sans-serif">bubblesort</text>
<rect x="215" y="350" width="130" height="24" rx="5" fill="#ef4444" opacity="0.85"/>
<text x="280" y="366" text-anchor="middle" font-size="10" font-weight="bold" fill="white" font-family="sans-serif">FAIL</text>
<rect x="355" y="350" width="130" height="24" rx="5" fill="#22c55e" opacity="0.85"/>
<text x="420" y="366" text-anchor="middle" font-size="10" font-weight="bold" fill="white" font-family="sans-serif">OK</text>
<rect x="495" y="350" width="130" height="24" rx="5" fill="#22c55e" opacity="0.85"/>
<text x="560" y="366" text-anchor="middle" font-size="10" font-weight="bold" fill="white" font-family="sans-serif">OK</text>
<line x1="210" y1="378" x2="630" y2="378" stroke="#475569" stroke-width="1" opacity="0.15"/>
<rect x="210" y="378" width="420" height="32" fill="#00000000"/>
<text x="200" y="399" text-anchor="end" font-size="11" fill="#94a3b8" font-family="monospace,sans-serif">find_in_sorted</text>
<rect x="215" y="382" width="130" height="24" rx="5" fill="#ef4444" opacity="0.85"/>
<text x="280" y="398" text-anchor="middle" font-size="10" font-weight="bold" fill="white" font-family="sans-serif">FAIL</text>
<rect x="355" y="382" width="130" height="24" rx="5" fill="#22c55e" opacity="0.85"/>
<text x="420" y="398" text-anchor="middle" font-size="10" font-weight="bold" fill="white" font-family="sans-serif">OK</text>
<rect x="495" y="382" width="130" height="24" rx="5" fill="#ef4444" opacity="0.85"/>
<text x="560" y="398" text-anchor="middle" font-size="10" font-weight="bold" fill="white" font-family="sans-serif">FAIL</text>
<line x1="210" y1="410" x2="630" y2="410" stroke="#475569" stroke-width="1" opacity="0.15"/>
<rect x="210" y="410" width="420" height="32" fill="#ffffff08"/>
<text x="200" y="431" text-anchor="end" font-size="11" fill="#94a3b8" font-family="monospace,sans-serif">shortest_path_lengths</text>
<rect x="215" y="414" width="130" height="24" rx="5" fill="#ef4444" opacity="0.85"/>
<text x="280" y="430" text-anchor="middle" font-size="10" font-weight="bold" fill="white" font-family="sans-serif">FAIL</text>
<rect x="355" y="414" width="130" height="24" rx="5" fill="#22c55e" opacity="0.85"/>
<text x="420" y="430" text-anchor="middle" font-size="10" font-weight="bold" fill="white" font-family="sans-serif">OK</text>
<rect x="495" y="414" width="130" height="24" rx="5" fill="#22c55e" opacity="0.85"/>
<text x="560" y="430" text-anchor="middle" font-size="10" font-weight="bold" fill="white" font-family="sans-serif">OK</text>
<line x1="210" y1="442" x2="630" y2="442" stroke="#475569" stroke-width="1" opacity="0.15"/>
<rect x="210" y="442" width="420" height="32" fill="#00000000"/>
<text x="200" y="463" text-anchor="end" font-size="11" fill="#94a3b8" font-family="monospace,sans-serif">pascal</text>
<rect x="215" y="446" width="130" height="24" rx="5" fill="#ef4444" opacity="0.85"/>
<text x="280" y="462" text-anchor="middle" font-size="10" font-weight="bold" fill="white" font-family="sans-serif">FAIL</text>
<rect x="355" y="446" width="130" height="24" rx="5" fill="#22c55e" opacity="0.85"/>
<text x="420" y="462" text-anchor="middle" font-size="10" font-weight="bold" fill="white" font-family="sans-serif">OK</text>
<rect x="495" y="446" width="130" height="24" rx="5" fill="#ef4444" opacity="0.85"/>
<text x="560" y="462" text-anchor="middle" font-size="10" font-weight="bold" fill="white" font-family="sans-serif">FAIL</text>
<line x1="210" y1="474" x2="630" y2="474" stroke="#475569" stroke-width="1" opacity="0.15"/>
<rect x="210" y="474" width="420" height="32" fill="#ffffff08"/>
<text x="200" y="495" text-anchor="end" font-size="11" fill="#94a3b8" font-family="monospace,sans-serif">next_permutation</text>
<rect x="215" y="478" width="130" height="24" rx="5" fill="#ef4444" opacity="0.85"/>
<text x="280" y="494" text-anchor="middle" font-size="10" font-weight="bold" fill="white" font-family="sans-serif">FAIL</text>
<rect x="355" y="478" width="130" height="24" rx="5" fill="#ef4444" opacity="0.85"/>
<text x="420" y="494" text-anchor="middle" font-size="10" font-weight="bold" fill="white" font-family="sans-serif">FAIL</text>
<rect x="495" y="478" width="130" height="24" rx="5" fill="#ef4444" opacity="0.85"/>
<text x="560" y="494" text-anchor="middle" font-size="10" font-weight="bold" fill="white" font-family="sans-serif">FAIL</text>
<line x1="210" y1="506" x2="630" y2="506" stroke="#475569" stroke-width="1" opacity="0.15"/>
<rect x="210" y="506" width="420" height="32" fill="#00000000"/>
<text x="200" y="527" text-anchor="end" font-size="11" fill="#94a3b8" font-family="monospace,sans-serif">levenshtein</text>
<rect x="215" y="510" width="130" height="24" rx="5" fill="#22c55e" opacity="0.85"/>
<text x="280" y="526" text-anchor="middle" font-size="10" font-weight="bold" fill="white" font-family="sans-serif">OK</text>
<rect x="355" y="510" width="130" height="24" rx="5" fill="#22c55e" opacity="0.85"/>
<text x="420" y="526" text-anchor="middle" font-size="10" font-weight="bold" fill="white" font-family="sans-serif">OK</text>
<rect x="495" y="510" width="130" height="24" rx="5" fill="#22c55e" opacity="0.85"/>
<text x="560" y="526" text-anchor="middle" font-size="10" font-weight="bold" fill="white" font-family="sans-serif">OK</text>
<line x1="210" y1="538" x2="630" y2="538" stroke="#475569" stroke-width="1" opacity="0.15"/>
<rect x="210" y="538" width="420" height="32" fill="#ffffff08"/>
<text x="200" y="559" text-anchor="end" font-size="11" fill="#94a3b8" font-family="monospace,sans-serif">lis</text>
<rect x="215" y="542" width="130" height="24" rx="5" fill="#ef4444" opacity="0.85"/>
<text x="280" y="558" text-anchor="middle" font-size="10" font-weight="bold" fill="white" font-family="sans-serif">FAIL</text>
<rect x="355" y="542" width="130" height="24" rx="5" fill="#ef4444" opacity="0.85"/>
<text x="420" y="558" text-anchor="middle" font-size="10" font-weight="bold" fill="white" font-family="sans-serif">FAIL</text>
<rect x="495" y="542" width="130" height="24" rx="5" fill="#ef4444" opacity="0.85"/>
<text x="560" y="558" text-anchor="middle" font-size="10" font-weight="bold" fill="white" font-family="sans-serif">FAIL</text>
<line x1="210" y1="570" x2="630" y2="570" stroke="#475569" stroke-width="1" opacity="0.15"/>
<rect x="210" y="570" width="420" height="32" fill="#00000000"/>
<text x="200" y="591" text-anchor="end" font-size="11" fill="#94a3b8" font-family="monospace,sans-serif">quicksort</text>
<rect x="215" y="574" width="130" height="24" rx="5" fill="#ef4444" opacity="0.85"/>
<text x="280" y="590" text-anchor="middle" font-size="10" font-weight="bold" fill="white" font-family="sans-serif">FAIL</text>
<rect x="355" y="574" width="130" height="24" rx="5" fill="#22c55e" opacity="0.85"/>
<text x="420" y="590" text-anchor="middle" font-size="10" font-weight="bold" fill="white" font-family="sans-serif">OK</text>
<rect x="495" y="574" width="130" height="24" rx="5" fill="#ef4444" opacity="0.85"/>
<text x="560" y="590" text-anchor="middle" font-size="10" font-weight="bold" fill="white" font-family="sans-serif">FAIL</text>
<line x1="210" y1="602" x2="630" y2="602" stroke="#475569" stroke-width="1" opacity="0.15"/>
<rect x="210" y="602" width="420" height="32" fill="#ffffff08"/>
<text x="200" y="623" text-anchor="end" font-size="11" fill="#94a3b8" font-family="monospace,sans-serif">mergesort</text>
<rect x="215" y="606" width="130" height="24" rx="5" fill="#ef4444" opacity="0.85"/>
<text x="280" y="622" text-anchor="middle" font-size="10" font-weight="bold" fill="white" font-family="sans-serif">FAIL</text>
<rect x="355" y="606" width="130" height="24" rx="5" fill="#22c55e" opacity="0.85"/>
<text x="420" y="622" text-anchor="middle" font-size="10" font-weight="bold" fill="white" font-family="sans-serif">OK</text>
<rect x="495" y="606" width="130" height="24" rx="5" fill="#22c55e" opacity="0.85"/>
<text x="560" y="622" text-anchor="middle" font-size="10" font-weight="bold" fill="white" font-family="sans-serif">OK</text>
<line x1="210" y1="634" x2="630" y2="634" stroke="#475569" stroke-width="1" opacity="0.15"/>
<rect x="210" y="634" width="420" height="32" fill="#00000000"/>
<text x="200" y="655" text-anchor="end" font-size="11" fill="#94a3b8" font-family="monospace,sans-serif">knapsack</text>
<rect x="215" y="638" width="130" height="24" rx="5" fill="#ef4444" opacity="0.85"/>
<text x="280" y="654" text-anchor="middle" font-size="10" font-weight="bold" fill="white" font-family="sans-serif">FAIL</text>
<rect x="355" y="638" width="130" height="24" rx="5" fill="#22c55e" opacity="0.85"/>
<text x="420" y="654" text-anchor="middle" font-size="10" font-weight="bold" fill="white" font-family="sans-serif">OK</text>
<rect x="495" y="638" width="130" height="24" rx="5" fill="#ef4444" opacity="0.85"/>
<text x="560" y="654" text-anchor="middle" font-size="10" font-weight="bold" fill="white" font-family="sans-serif">FAIL</text>
<line x1="210" y1="666" x2="630" y2="666" stroke="#475569" stroke-width="1" opacity="0.15"/>
<rect x="210" y="666" width="420" height="32" fill="#ffffff08"/>
<text x="200" y="687" text-anchor="end" font-size="11" fill="#94a3b8" font-family="monospace,sans-serif">shortest_path_step</text>
<rect x="215" y="670" width="130" height="24" rx="5" fill="#ef4444" opacity="0.85"/>
<text x="280" y="686" text-anchor="middle" font-size="10" font-weight="bold" fill="white" font-family="sans-serif">FAIL</text>
<rect x="355" y="670" width="130" height="24" rx="5" fill="#22c55e" opacity="0.85"/>
<text x="420" y="686" text-anchor="middle" font-size="10" font-weight="bold" fill="white" font-family="sans-serif">OK</text>
<rect x="495" y="670" width="130" height="24" rx="5" fill="#ef4444" opacity="0.85"/>
<text x="560" y="686" text-anchor="middle" font-size="10" font-weight="bold" fill="white" font-family="sans-serif">FAIL</text>
<line x1="210" y1="698" x2="630" y2="698" stroke="#475569" stroke-width="1" opacity="0.15"/>
<rect x="210" y="698" width="420" height="32" fill="#00000000"/>
<text x="200" y="719" text-anchor="end" font-size="11" fill="#94a3b8" font-family="monospace,sans-serif">topological_sort</text>
<rect x="215" y="702" width="130" height="24" rx="5" fill="#22c55e" opacity="0.85"/>
<text x="280" y="718" text-anchor="middle" font-size="10" font-weight="bold" fill="white" font-family="sans-serif">OK</text>
<rect x="355" y="702" width="130" height="24" rx="5" fill="#22c55e" opacity="0.85"/>
<text x="420" y="718" text-anchor="middle" font-size="10" font-weight="bold" fill="white" font-family="sans-serif">OK</text>
<rect x="495" y="702" width="130" height="24" rx="5" fill="#22c55e" opacity="0.85"/>
<text x="560" y="718" text-anchor="middle" font-size="10" font-weight="bold" fill="white" font-family="sans-serif">OK</text>
<line x1="210" y1="730" x2="630" y2="730" stroke="#475569" stroke-width="1" opacity="0.15"/>
<rect x="210" y="738" width="18" height="13" rx="3" fill="#22c55e"/>
<text x="234" y="748" font-size="12" fill="#94a3b8" font-family="sans-serif">OK</text>
<rect x="320" y="738" width="18" height="13" rx="3" fill="#ef4444"/>
<text x="344" y="748" font-size="12" fill="#94a3b8" font-family="sans-serif">FAIL</text>
<rect x="430" y="738" width="18" height="13" rx="3" fill="#f97316"/>
<text x="454" y="748" font-size="12" fill="#94a3b8" font-family="sans-serif">TIMEOUT</text>
</svg>