<svg xmlns="http://www.w3.org/2000/svg" width="880" height="620" viewBox="0 0 880 620" role="img">
<style>text{font-family:Arial,sans-serif;fill:#172033} .title{font-size:22px;font-weight:700}.label{font-size:13px}.value{font-size:12px;font-weight:700}.grid{stroke:#d7dee8;stroke-width:1}</style>
<rect width="100%" height="100%" fill="#ffffff"/><text x="28" y="36" class="title">Status das suítes por algoritmo e modelo</text><text x="350" y="66" class="label" text-anchor="middle">GPT-4o</text><text x="530" y="66" class="label" text-anchor="middle">Gemini 1.5 Pro</text><text x="710" y="66" class="label" text-anchor="middle">Claude 3.5 Sonnet</text><text x="250" y="97" class="label" text-anchor="end">bitcount</text><rect x="260" y="80" width="177" height="22" rx="2" fill="#15803d"><title>bitcount — GPT-4o: OK</title></rect><text x="350" y="96" class="value" text-anchor="middle" style="fill:white;font-size:10px">OK</text><rect x="440" y="80" width="177" height="22" rx="2" fill="#15803d"><title>bitcount — Gemini 1.5 Pro: OK</title></rect><text x="530" y="96" class="value" text-anchor="middle" style="fill:white;font-size:10px">OK</text><rect x="620" y="80" width="177" height="22" rx="2" fill="#15803d"><title>bitcount — Claude 3.5 Sonnet: OK</title></rect><text x="710" y="96" class="value" text-anchor="middle" style="fill:white;font-size:10px">OK</text><text x="250" y="122" class="label" text-anchor="end">bucketsort</text><rect x="260" y="105" width="177" height="22" rx="2" fill="#15803d"><title>bucketsort — GPT-4o: OK</title></rect><text x="350" y="121" class="value" text-anchor="middle" style="fill:white;font-size:10px">OK</text><rect x="440" y="105" width="177" height="22" rx="2" fill="#15803d"><title>bucketsort — Gemini 1.5 Pro: OK</title></rect><text x="530" y="121" class="value" text-anchor="middle" style="fill:white;font-size:10px">OK</text><rect x="620" y="105" width="177" height="22" rx="2" fill="#15803d"><title>bucketsort — Claude 3.5 Sonnet: OK</title></rect><text x="710" y="121" class="value" text-anchor="middle" style="fill:white;font-size:10px">OK</text><text x="250" y="147" class="label" text-anchor="end">find_first_in_sorted</text><rect x="260" y="130" width="177" height="22" rx="2" fill="#15803d"><title>find_first_in_sorted — GPT-4o: OK</title></rect><text x="350" y="146" class="value" text-anchor="middle" style="fill:white;font-size:10px">OK</text><rect x="440" y="130" width="177" height="22" rx="2" fill="#15803d"><title>find_first_in_sorted — Gemini 1.5 Pro: OK</title></rect><text x="530" y="146" class="value" text-anchor="middle" style="fill:white;font-size:10px">OK</text><rect x="620" y="130" width="177" height="22" rx="2" fill="#15803d"><title>find_first_in_sorted — Claude 3.5 Sonnet: OK</title></rect><text x="710" y="146" class="value" text-anchor="middle" style="fill:white;font-size:10px">OK</text><text x="250" y="172" class="label" text-anchor="end">find_in_sorted</text><rect x="260" y="155" width="177" height="22" rx="2" fill="#15803d"><title>find_in_sorted — GPT-4o: OK</title></rect><text x="350" y="171" class="value" text-anchor="middle" style="fill:white;font-size:10px">OK</text><rect x="440" y="155" width="177" height="22" rx="2" fill="#15803d"><title>find_in_sorted — Gemini 1.5 Pro: OK</title></rect><text x="530" y="171" class="value" text-anchor="middle" style="fill:white;font-size:10px">OK</text><rect x="620" y="155" width="177" height="22" rx="2" fill="#15803d"><title>find_in_sorted — Claude 3.5 Sonnet: OK</title></rect><text x="710" y="171" class="value" text-anchor="middle" style="fill:white;font-size:10px">OK</text><text x="250" y="197" class="label" text-anchor="end">flatten</text><rect x="260" y="180" width="177" height="22" rx="2" fill="#15803d"><title>flatten — GPT-4o: OK</title></rect><text x="350" y="196" class="value" text-anchor="middle" style="fill:white;font-size:10px">OK</text><rect x="440" y="180" width="177" height="22" rx="2" fill="#15803d"><title>flatten — Gemini 1.5 Pro: OK</title></rect><text x="530" y="196" class="value" text-anchor="middle" style="fill:white;font-size:10px">OK</text><rect x="620" y="180" width="177" height="22" rx="2" fill="#15803d"><title>flatten — Claude 3.5 Sonnet: OK</title></rect><text x="710" y="196" class="value" text-anchor="middle" style="fill:white;font-size:10px">OK</text><text x="250" y="222" class="label" text-anchor="end">gcd</text><rect x="260" y="205" width="177" height="22" rx="2" fill="#15803d"><title>gcd — GPT-4o: OK</title></rect><text x="350" y="221" class="value" text-anchor="middle" style="fill:white;font-size:10px">OK</text><rect x="440" y="205" width="177" height="22" rx="2" fill="#15803d"><title>gcd — Gemini 1.5 Pro: OK</title></rect><text x="530" y="221" class="value" text-anchor="middle" style="fill:white;font-size:10px">OK</text><rect x="620" y="205" width="177" height="22" rx="2" fill="#15803d"><title>gcd — Claude 3.5 Sonnet: OK</title></rect><text x="710" y="221" class="value" text-anchor="middle" style="fill:white;font-size:10px">OK</text><text x="250" y="247" class="label" text-anchor="end">get_factors</text><rect x="260" y="230" width="177" height="22" rx="2" fill="#15803d"><title>get_factors — GPT-4o: OK</title></rect><text x="350" y="246" class="value" text-anchor="middle" style="fill:white;font-size:10px">OK</text><rect x="440" y="230" width="177" height="22" rx="2" fill="#15803d"><title>get_factors — Gemini 1.5 Pro: OK</title></rect><text x="530" y="246" class="value" text-anchor="middle" style="fill:white;font-size:10px">OK</text><rect x="620" y="230" width="177" height="22" rx="2" fill="#15803d"><title>get_factors — Claude 3.5 Sonnet: OK</title></rect><text x="710" y="246" class="value" text-anchor="middle" style="fill:white;font-size:10px">OK</text><text x="250" y="272" class="label" text-anchor="end">is_valid_parenthesization</text><rect x="260" y="255" width="177" height="22" rx="2" fill="#15803d"><title>is_valid_parenthesization — GPT-4o: OK</title></rect><text x="350" y="271" class="value" text-anchor="middle" style="fill:white;font-size:10px">OK</text><rect x="440" y="255" width="177" height="22" rx="2" fill="#15803d"><title>is_valid_parenthesization — Gemini 1.5 Pro: OK</title></rect><text x="530" y="271" class="value" text-anchor="middle" style="fill:white;font-size:10px">OK</text><rect x="620" y="255" width="177" height="22" rx="2" fill="#15803d"><title>is_valid_parenthesization — Claude 3.5 Sonnet: OK</title></rect><text x="710" y="271" class="value" text-anchor="middle" style="fill:white;font-size:10px">OK</text><text x="250" y="297" class="label" text-anchor="end">knapsack</text><rect x="260" y="280" width="177" height="22" rx="2" fill="#15803d"><title>knapsack — GPT-4o: OK</title></rect><text x="350" y="296" class="value" text-anchor="middle" style="fill:white;font-size:10px">OK</text><rect x="440" y="280" width="177" height="22" rx="2" fill="#dc2626"><title>knapsack — Gemini 1.5 Pro: ASSERTION_FAILURE</title></rect><text x="530" y="296" class="value" text-anchor="middle" style="fill:white;font-size:10px">ASSERTION_FAILURE</text><rect x="620" y="280" width="177" height="22" rx="2" fill="#dc2626"><title>knapsack — Claude 3.5 Sonnet: ASSERTION_FAILURE</title></rect><text x="710" y="296" class="value" text-anchor="middle" style="fill:white;font-size:10px">ASSERTION_FAILURE</text><text x="250" y="322" class="label" text-anchor="end">levenshtein</text><rect x="260" y="305" width="177" height="22" rx="2" fill="#15803d"><title>levenshtein — GPT-4o: OK</title></rect><text x="350" y="321" class="value" text-anchor="middle" style="fill:white;font-size:10px">OK</text><rect x="440" y="305" width="177" height="22" rx="2" fill="#15803d"><title>levenshtein — Gemini 1.5 Pro: OK</title></rect><text x="530" y="321" class="value" text-anchor="middle" style="fill:white;font-size:10px">OK</text><rect x="620" y="305" width="177" height="22" rx="2" fill="#15803d"><title>levenshtein — Claude 3.5 Sonnet: OK</title></rect><text x="710" y="321" class="value" text-anchor="middle" style="fill:white;font-size:10px">OK</text><text x="250" y="347" class="label" text-anchor="end">lis</text><rect x="260" y="330" width="177" height="22" rx="2" fill="#15803d"><title>lis — GPT-4o: OK</title></rect><text x="350" y="346" class="value" text-anchor="middle" style="fill:white;font-size:10px">OK</text><rect x="440" y="330" width="177" height="22" rx="2" fill="#15803d"><title>lis — Gemini 1.5 Pro: OK</title></rect><text x="530" y="346" class="value" text-anchor="middle" style="fill:white;font-size:10px">OK</text><rect x="620" y="330" width="177" height="22" rx="2" fill="#15803d"><title>lis — Claude 3.5 Sonnet: OK</title></rect><text x="710" y="346" class="value" text-anchor="middle" style="fill:white;font-size:10px">OK</text><text x="250" y="372" class="label" text-anchor="end">max_sublist_sum</text><rect x="260" y="355" width="177" height="22" rx="2" fill="#15803d"><title>max_sublist_sum — GPT-4o: OK</title></rect><text x="350" y="371" class="value" text-anchor="middle" style="fill:white;font-size:10px">OK</text><rect x="440" y="355" width="177" height="22" rx="2" fill="#15803d"><title>max_sublist_sum — Gemini 1.5 Pro: OK</title></rect><text x="530" y="371" class="value" text-anchor="middle" style="fill:white;font-size:10px">OK</text><rect x="620" y="355" width="177" height="22" rx="2" fill="#dc2626"><title>max_sublist_sum — Claude 3.5 Sonnet: ASSERTION_FAILURE</title></rect><text x="710" y="371" class="value" text-anchor="middle" style="fill:white;font-size:10px">ASSERTION_FAILURE</text><text x="250" y="397" class="label" text-anchor="end">mergesort</text><rect x="260" y="380" width="177" height="22" rx="2" fill="#15803d"><title>mergesort — GPT-4o: OK</title></rect><text x="350" y="396" class="value" text-anchor="middle" style="fill:white;font-size:10px">OK</text><rect x="440" y="380" width="177" height="22" rx="2" fill="#15803d"><title>mergesort — Gemini 1.5 Pro: OK</title></rect><text x="530" y="396" class="value" text-anchor="middle" style="fill:white;font-size:10px">OK</text><rect x="620" y="380" width="177" height="22" rx="2" fill="#15803d"><title>mergesort — Claude 3.5 Sonnet: OK</title></rect><text x="710" y="396" class="value" text-anchor="middle" style="fill:white;font-size:10px">OK</text><text x="250" y="422" class="label" text-anchor="end">next_palindrome</text><rect x="260" y="405" width="177" height="22" rx="2" fill="#15803d"><title>next_palindrome — GPT-4o: OK</title></rect><text x="350" y="421" class="value" text-anchor="middle" style="fill:white;font-size:10px">OK</text><rect x="440" y="405" width="177" height="22" rx="2" fill="#7e22ce"><title>next_palindrome — Gemini 1.5 Pro: RUNTIME_ERROR</title></rect><text x="530" y="421" class="value" text-anchor="middle" style="fill:white;font-size:10px">RUNTIME_ERROR</text><rect x="620" y="405" width="177" height="22" rx="2" fill="#15803d"><title>next_palindrome — Claude 3.5 Sonnet: OK</title></rect><text x="710" y="421" class="value" text-anchor="middle" style="fill:white;font-size:10px">OK</text><text x="250" y="447" class="label" text-anchor="end">next_permutation</text><rect x="260" y="430" width="177" height="22" rx="2" fill="#15803d"><title>next_permutation — GPT-4o: OK</title></rect><text x="350" y="446" class="value" text-anchor="middle" style="fill:white;font-size:10px">OK</text><rect x="440" y="430" width="177" height="22" rx="2" fill="#15803d"><title>next_permutation — Gemini 1.5 Pro: OK</title></rect><text x="530" y="446" class="value" text-anchor="middle" style="fill:white;font-size:10px">OK</text><rect x="620" y="430" width="177" height="22" rx="2" fill="#15803d"><title>next_permutation — Claude 3.5 Sonnet: OK</title></rect><text x="710" y="446" class="value" text-anchor="middle" style="fill:white;font-size:10px">OK</text><text x="250" y="472" class="label" text-anchor="end">pascal</text><rect x="260" y="455" width="177" height="22" rx="2" fill="#15803d"><title>pascal — GPT-4o: OK</title></rect><text x="350" y="471" class="value" text-anchor="middle" style="fill:white;font-size:10px">OK</text><rect x="440" y="455" width="177" height="22" rx="2" fill="#15803d"><title>pascal — Gemini 1.5 Pro: OK</title></rect><text x="530" y="471" class="value" text-anchor="middle" style="fill:white;font-size:10px">OK</text><rect x="620" y="455" width="177" height="22" rx="2" fill="#15803d"><title>pascal — Claude 3.5 Sonnet: OK</title></rect><text x="710" y="471" class="value" text-anchor="middle" style="fill:white;font-size:10px">OK</text><text x="250" y="497" class="label" text-anchor="end">possible_change</text><rect x="260" y="480" width="177" height="22" rx="2" fill="#15803d"><title>possible_change — GPT-4o: OK</title></rect><text x="350" y="496" class="value" text-anchor="middle" style="fill:white;font-size:10px">OK</text><rect x="440" y="480" width="177" height="22" rx="2" fill="#dc2626"><title>possible_change — Gemini 1.5 Pro: ASSERTION_FAILURE</title></rect><text x="530" y="496" class="value" text-anchor="middle" style="fill:white;font-size:10px">ASSERTION_FAILURE</text><rect x="620" y="480" width="177" height="22" rx="2" fill="#dc2626"><title>possible_change — Claude 3.5 Sonnet: ASSERTION_FAILURE</title></rect><text x="710" y="496" class="value" text-anchor="middle" style="fill:white;font-size:10px">ASSERTION_FAILURE</text><text x="250" y="522" class="label" text-anchor="end">powerset</text><rect x="260" y="505" width="177" height="22" rx="2" fill="#15803d"><title>powerset — GPT-4o: OK</title></rect><text x="350" y="521" class="value" text-anchor="middle" style="fill:white;font-size:10px">OK</text><rect x="440" y="505" width="177" height="22" rx="2" fill="#15803d"><title>powerset — Gemini 1.5 Pro: OK</title></rect><text x="530" y="521" class="value" text-anchor="middle" style="fill:white;font-size:10px">OK</text><rect x="620" y="505" width="177" height="22" rx="2" fill="#15803d"><title>powerset — Claude 3.5 Sonnet: OK</title></rect><text x="710" y="521" class="value" text-anchor="middle" style="fill:white;font-size:10px">OK</text><text x="250" y="547" class="label" text-anchor="end">quicksort</text><rect x="260" y="530" width="177" height="22" rx="2" fill="#15803d"><title>quicksort — GPT-4o: OK</title></rect><text x="350" y="546" class="value" text-anchor="middle" style="fill:white;font-size:10px">OK</text><rect x="440" y="530" width="177" height="22" rx="2" fill="#15803d"><title>quicksort — Gemini 1.5 Pro: OK</title></rect><text x="530" y="546" class="value" text-anchor="middle" style="fill:white;font-size:10px">OK</text><rect x="620" y="530" width="177" height="22" rx="2" fill="#15803d"><title>quicksort — Claude 3.5 Sonnet: OK</title></rect><text x="710" y="546" class="value" text-anchor="middle" style="fill:white;font-size:10px">OK</text><text x="250" y="572" class="label" text-anchor="end">shortest_path_lengths</text><rect x="260" y="555" width="177" height="22" rx="2" fill="#dc2626"><title>shortest_path_lengths — GPT-4o: ASSERTION_FAILURE</title></rect><text x="350" y="571" class="value" text-anchor="middle" style="fill:white;font-size:10px">ASSERTION_FAILURE</text><rect x="440" y="555" width="177" height="22" rx="2" fill="#15803d"><title>shortest_path_lengths — Gemini 1.5 Pro: OK</title></rect><text x="530" y="571" class="value" text-anchor="middle" style="fill:white;font-size:10px">OK</text><rect x="620" y="555" width="177" height="22" rx="2" fill="#dc2626"><title>shortest_path_lengths — Claude 3.5 Sonnet: ASSERTION_FAILURE</title></rect><text x="710" y="571" class="value" text-anchor="middle" style="fill:white;font-size:10px">ASSERTION_FAILURE</text></svg>