<svg xmlns="http://www.w3.org/2000/svg" width="900" height="470" viewBox="0 0 900 470" role="img">
<style>text{font-family:Arial,sans-serif;fill:#172033} .title{font-size:22px;font-weight:700}.label{font-size:13px}.value{font-size:12px;font-weight:700}.grid{stroke:#d7dee8;stroke-width:1}</style>
<rect width="100%" height="100%" fill="#ffffff"/><text x="28" y="38" class="title">Distribuição dos status por modelo</text><rect x="165" y="118" width="130" height="247" fill="#15803d"><title>GPT-4o: OK = 19</title></rect><text x="230" y="245.5" class="value" text-anchor="middle" fill="#fff">19</text><rect x="165" y="105" width="130" height="13" fill="#dc2626"><title>GPT-4o: ASSERTION_FAILURE = 1</title></rect><text x="230" y="115.5" class="value" text-anchor="middle" fill="#fff">1</text><rect x="165" y="105" width="130" height="0" fill="#7e22ce"><title>GPT-4o: RUNTIME_ERROR = 0</title></rect><text x="230" y="390" class="label" text-anchor="middle">GPT-4o</text><rect x="405" y="144" width="130" height="221" fill="#15803d"><title>Gemini 1.5 Pro: OK = 17</title></rect><text x="470" y="258.5" class="value" text-anchor="middle" fill="#fff">17</text><rect x="405" y="118" width="130" height="26" fill="#dc2626"><title>Gemini 1.5 Pro: ASSERTION_FAILURE = 2</title></rect><text x="470" y="135" class="value" text-anchor="middle" fill="#fff">2</text><rect x="405" y="105" width="130" height="13" fill="#7e22ce"><title>Gemini 1.5 Pro: RUNTIME_ERROR = 1</title></rect><text x="470" y="115.5" class="value" text-anchor="middle" fill="#fff">1</text><text x="470" y="390" class="label" text-anchor="middle">Gemini 1.5 Pro</text><rect x="645" y="157" width="130" height="208" fill="#15803d"><title>Claude 3.5 Sonnet: OK = 16</title></rect><text x="710" y="265" class="value" text-anchor="middle" fill="#fff">16</text><rect x="645" y="105" width="130" height="52" fill="#dc2626"><title>Claude 3.5 Sonnet: ASSERTION_FAILURE = 4</title></rect><text x="710" y="135" class="value" text-anchor="middle" fill="#fff">4</text><rect x="645" y="105" width="130" height="0" fill="#7e22ce"><title>Claude 3.5 Sonnet: RUNTIME_ERROR = 0</title></rect><text x="710" y="390" class="label" text-anchor="middle">Claude 3.5 Sonnet</text><rect x="45" y="403" width="14" height="14" fill="#15803d"/><text x="66" y="415" class="label">OK</text><rect x="255" y="403" width="14" height="14" fill="#dc2626"/><text x="276" y="415" class="label">ASSERTION_FAILURE</text><rect x="465" y="403" width="14" height="14" fill="#7e22ce"/><text x="486" y="415" class="label">RUNTIME_ERROR</text></svg>