<svg xmlns="http://www.w3.org/2000/svg" width="820" height="400" viewBox="0 0 820 400" role="img">
<style>text{font-family:Arial,sans-serif;fill:#172033} .title{font-size:22px;font-weight:700}.label{font-size:13px}.value{font-size:12px;font-weight:700}.grid{stroke:#d7dee8;stroke-width:1}</style>
<rect width="100%" height="100%" fill="#ffffff"/><text x="32" y="38" class="title">Taxa de suítes válidas por modelo</text><line x1="170" y1="65" x2="170" y2="352" class="grid"/><text x="170" y="375" class="label" text-anchor="middle">0</text><line x1="284" y1="65" x2="284" y2="352" class="grid"/><text x="284" y="375" class="label" text-anchor="middle">20</text><line x1="398" y1="65" x2="398" y2="352" class="grid"/><text x="398" y="375" class="label" text-anchor="middle">40</text><line x1="512" y1="65" x2="512" y2="352" class="grid"/><text x="512" y="375" class="label" text-anchor="middle">60</text><line x1="626" y1="65" x2="626" y2="352" class="grid"/><text x="626" y="375" class="label" text-anchor="middle">80</text><line x1="740" y1="65" x2="740" y2="352" class="grid"/><text x="740" y="375" class="label" text-anchor="middle">100</text><text x="158" y="106" class="label" text-anchor="end">GPT-4o</text><rect x="170" y="75" width="541.5" height="52" rx="4" fill="#2563eb"/><text x="719.5" y="106" class="value">95.00% (19/20)</text><text x="158" y="184" class="label" text-anchor="end">Gemini 1.5 Pro</text><rect x="170" y="153" width="484.5" height="52" rx="4" fill="#d97706"/><text x="662.5" y="184" class="value">85.00% (17/20)</text><text x="158" y="262" class="label" text-anchor="end">Claude 3.5 Sonnet</text><rect x="170" y="231" width="456" height="52" rx="4" fill="#7c3aed"/><text x="634" y="262" class="value">80.00% (16/20)</text></svg>