<svg xmlns="http://www.w3.org/2000/svg" width="660" height="368">
<rect width="660" height="368" fill="#0f172a"/>
<text x="330" y="32" text-anchor="middle" font-size="17" font-weight="bold" fill="#f1f5f9" font-family="sans-serif">Taxa de Sucesso por Modelo</text>
<text x="330" y="54" text-anchor="middle" font-size="12" fill="#94a3b8" font-family="sans-serif">% de algoritmos com status OK</text>
<line x1="120" y1="70" x2="120" y2="338" stroke="#475569" stroke-width="1" opacity="0.35" stroke-dasharray="5,5"/>
<text x="120" y="66" text-anchor="middle" font-size="10" fill="#94a3b8" font-family="sans-serif">0%</text>
<line x1="240" y1="70" x2="240" y2="338" stroke="#475569" stroke-width="1" opacity="0.35" stroke-dasharray="5,5"/>
<text x="240" y="66" text-anchor="middle" font-size="10" fill="#94a3b8" font-family="sans-serif">25%</text>
<line x1="360" y1="70" x2="360" y2="338" stroke="#475569" stroke-width="1" opacity="0.35" stroke-dasharray="5,5"/>
<text x="360" y="66" text-anchor="middle" font-size="10" fill="#94a3b8" font-family="sans-serif">50%</text>
<line x1="480" y1="70" x2="480" y2="338" stroke="#475569" stroke-width="1" opacity="0.35" stroke-dasharray="5,5"/>
<text x="480" y="66" text-anchor="middle" font-size="10" fill="#94a3b8" font-family="sans-serif">75%</text>
<line x1="600" y1="70" x2="600" y2="338" stroke="#475569" stroke-width="1" opacity="0.35" stroke-dasharray="5,5"/>
<text x="600" y="66" text-anchor="middle" font-size="10" fill="#94a3b8" font-family="sans-serif">100%</text>
<text x="110" y="111" text-anchor="end" font-size="14" font-weight="bold" fill="#60a5fa" font-family="sans-serif">GPT-4o</text>
<rect x="120" y="78" width="480" height="56" rx="8" fill="#334155" opacity="0.45"/>
<rect x="120" y="78" width="144" height="56" rx="8" fill="#60a5fa" opacity="0.9"/>
<text x="254" y="111" text-anchor="end" font-size="15" font-weight="bold" fill="white" font-family="sans-serif">30%  (6/20)</text>
<text x="110" y="191" text-anchor="end" font-size="14" font-weight="bold" fill="#c084fc" font-family="sans-serif">Gemini</text>
<rect x="120" y="158" width="480" height="56" rx="8" fill="#334155" opacity="0.45"/>
<rect x="120" y="158" width="408" height="56" rx="8" fill="#c084fc" opacity="0.9"/>
<text x="518" y="191" text-anchor="end" font-size="15" font-weight="bold" fill="white" font-family="sans-serif">85%  (17/20)</text>
<text x="110" y="271" text-anchor="end" font-size="14" font-weight="bold" fill="#fbbf24" font-family="sans-serif">Claude</text>
<rect x="120" y="238" width="480" height="56" rx="8" fill="#334155" opacity="0.45"/>
<rect x="120" y="238" width="168" height="56" rx="8" fill="#fbbf24" opacity="0.9"/>
<text x="278" y="271" text-anchor="end" font-size="15" font-weight="bold" fill="white" font-family="sans-serif">35%  (7/20)</text>
</svg>